<?xml version="1.0" encoding="UTF-8" standalone="no"?>
<!DOCTYPE svg PUBLIC "-//W3C//DTD SVG 1.1//EN" "http://www.w3.org/Graphics/SVG/1.1/DTD/svg11.dtd">
<svg width="100%" height="100%" viewBox="0 0 3815 3631" version="1.1" xmlns="http://www.w3.org/2000/svg" xmlns:xlink="http://www.w3.org/1999/xlink" xml:space="preserve" xmlns:serif="http://www.serif.com/" style="fill-rule:evenodd;clip-rule:evenodd;stroke-linejoin:round;stroke-miterlimit:2;">
    <g transform="matrix(10.0045,0,0,10.0045,181.47,-2903.25)">
        <g transform="matrix(-0.429333,-5.25781e-17,5.25781e-17,-0.429333,513.212,714.178)">
            <circle cx="793.523" cy="567.547" r="316.227" style="fill:rgb(13,100,171);"/>
        </g>
        <g transform="matrix(0.0560082,0,0,0.0560082,-7.74178,314.056)">
            <path d="M3723.85,987.315C4537.52,1470.28 4966.3,2248.44 4720.99,2814.91C4534.16,2913.03 4375.08,3143.05 4257.02,3241.93C4181.49,3305.19 4048.55,3353.17 4012.64,3408.18C3982.33,3454.61 3934.19,3519.25 4041.57,3571.99C4203.42,3610.73 4245.45,3598.72 4416.25,3461.4C4604.4,3307.82 4670.38,3373.35 4623.58,3641.12C4522.56,4004.05 4306.8,4310.15 3962.41,4552.52C3913.8,4611.1 3965.2,4689.24 4010.06,4680.87C4089.81,4666 4176.46,4652.68 4440.9,4463.3C4627.89,4329.4 4861.28,4048.06 4989.52,3834.22C5107.84,3636.9 5177.62,3390.22 5210.32,3180.26C5253.75,2901.37 5192.08,2579.87 5136.21,2345.69C5038.3,1935.3 4786.79,1563.83 4426.79,1308.43C4226.18,1166.11 3982.85,1025.45 3723.85,987.315Z" style="fill:white;"/>
            <g transform="matrix(1,0,0,1,10.939,-1.41505)">
                <path d="M4456.83,3920.6C4484.25,3862.95 4523.13,3798.64 4549.68,3734.81C4418.38,3749.88 4293.65,3786.03 4225.88,3855.64C4195.64,3892.09 4191.86,3928.74 4233.07,3954.86C4309.37,3950.73 4381.74,3936.65 4456.83,3920.6Z" style="fill:white;"/>
            </g>
            <g transform="matrix(1,0,0,1,-78.7578,197.695)">
                <path d="M4429.07,3937.47C4456.13,3885.46 4518.14,3816.57 4541.28,3743.85C4409.98,3758.91 4229.26,3786.2 4161.48,3855.8C4131.24,3892.26 4111.07,3963.87 4152.29,3989.99C4228.59,3985.86 4353.98,3953.51 4429.07,3937.47Z" style="fill:white;"/>
            </g>
            <g transform="matrix(1,0,0,1,-205.969,422.609)">
                <path d="M4353.67,3953.64C4370.21,3929.28 4526.03,3780.88 4535.12,3744.8C4403.82,3759.86 4202.27,3810.75 4134.49,3880.36C4104.26,3916.81 4056.32,3986.12 4097.53,4012.24C4173.83,4008.11 4250.65,4012.17 4353.67,3953.64Z" style="fill:white;"/>
            </g>
        </g>
        <g transform="matrix(-0.0560082,0,0,-0.0560082,351.972,631.556)">
            <path d="M3723.85,987.315C4537.52,1470.28 4966.3,2248.44 4720.99,2814.91C4534.16,2913.03 4375.08,3143.05 4257.02,3241.93C4181.49,3305.19 4048.55,3353.17 4012.64,3408.18C3982.33,3454.61 3934.19,3519.25 4041.57,3571.99C4203.42,3610.73 4245.45,3598.72 4416.25,3461.4C4604.4,3307.82 4670.38,3373.35 4623.58,3641.12C4522.56,4004.05 4306.8,4310.15 3962.41,4552.52C3913.8,4611.1 3965.2,4689.24 4010.06,4680.87C4089.81,4666 4176.46,4652.68 4440.9,4463.3C4627.89,4329.4 4861.28,4048.06 4989.52,3834.22C5107.84,3636.9 5177.62,3390.22 5210.32,3180.26C5253.75,2901.37 5192.08,2579.87 5136.21,2345.69C5038.3,1935.3 4786.79,1563.83 4426.79,1308.43C4226.18,1166.11 3982.85,1025.45 3723.85,987.315Z" style="fill:white;"/>
            <g transform="matrix(1,0,0,1,10.939,-1.41505)">
                <path d="M4456.83,3920.6C4484.25,3862.95 4523.13,3798.64 4549.68,3734.81C4418.38,3749.88 4293.65,3786.03 4225.88,3855.64C4195.64,3892.09 4191.86,3928.74 4233.07,3954.86C4309.37,3950.73 4381.74,3936.65 4456.83,3920.6Z" style="fill:white;"/>
            </g>
            <g transform="matrix(1,0,0,1,-78.7578,197.695)">
                <path d="M4429.07,3937.47C4456.13,3885.46 4518.14,3816.57 4541.28,3743.85C4409.98,3758.91 4229.26,3786.2 4161.48,3855.8C4131.24,3892.26 4111.07,3963.87 4152.29,3989.99C4228.59,3985.86 4353.98,3953.51 4429.07,3937.47Z" style="fill:white;"/>
            </g>
            <g transform="matrix(1,0,0,1,-205.969,422.609)">
                <path d="M4353.67,3953.64C4370.21,3929.28 4526.03,3780.88 4535.12,3744.8C4403.82,3759.86 4202.27,3810.75 4134.49,3880.36C4104.26,3916.81 4056.32,3986.12 4097.53,4012.24C4173.83,4008.11 4250.65,4012.17 4353.67,3953.64Z" style="fill:white;"/>
            </g>
        </g>
        <g transform="matrix(0.102012,0,0,0.100418,45.5756,294.628)">
            <path d="M1404.01,757.489C1348.8,814.037 1284.01,926.033 1249.57,1022.21C1214.66,1119.71 1189.97,1266.8 1206.16,1373.51C1220.49,1467.98 1251.23,1548.74 1301.04,1649.28C1352.22,1752.59 1402.98,1884.5 1412.35,2011.58C1421.06,2129.66 1392.57,2284.91 1367.12,2363.91C1342.22,2441.18 1307.15,2504.19 1271.46,2585.22C1241.51,2653.22 1211.48,2734.18 1214.34,2804.58C1242.35,2709.23 1271.14,2667.81 1298.89,2613.26C1298.89,2613.26 1352.21,2515.54 1378.55,2466.8C1411.95,2404.98 1441.93,2328.53 1457.49,2273C1476.02,2206.87 1492.33,2112.82 1494.33,2042.77C1496.63,1962.06 1490.07,1897.92 1462.22,1815.05C1423.72,1700.44 1364.06,1585.94 1315.24,1472.12C1275.26,1378.88 1274.09,1276.96 1273.03,1253.24C1270.56,1198.03 1286.64,1046.85 1334.32,925.204C1359.32,859.651 1381.73,807.999 1404.01,757.489Z" style="fill:white;"/>
        </g>
        <g transform="matrix(0.0902361,0,0,0.0902361,2.58199,302.209)">
            <circle cx="1846.18" cy="885.787" r="37.15" style="fill:white;"/>
        </g>
        <g transform="matrix(0.110649,0,0,0.110649,-41.6934,296.153)">
            <circle cx="1846.18" cy="885.787" r="37.15" style="fill:white;"/>
        </g>
        <g transform="matrix(0.148282,0,0,0.148282,-115.843,276.149)">
            <circle cx="1846.18" cy="885.787" r="37.15" style="fill:white;"/>
        </g>
        <g transform="matrix(0.180563,0,0,0.180563,-178.13,263.72)">
            <circle cx="1846.18" cy="885.787" r="37.15" style="fill:white;"/>
        </g>
        <g transform="matrix(0.187705,0,0,0.187705,-189.17,274.388)">
            <circle cx="1846.18" cy="885.787" r="37.15" style="fill:white;"/>
        </g>
        <g transform="matrix(0.195942,0,0,0.195942,-198.322,283.659)">
            <circle cx="1846.18" cy="885.787" r="37.15" style="fill:white;"/>
        </g>
        <g transform="matrix(0.208503,0,0,0.208503,-214.234,289.396)">
            <circle cx="1846.18" cy="885.787" r="37.15" style="fill:white;"/>
        </g>
        <g transform="matrix(0.208503,0,0,0.208503,-209.54,307.324)">
            <circle cx="1846.18" cy="885.787" r="37.15" style="fill:white;"/>
        </g>
        <g transform="matrix(0.183473,0,0,0.183473,-163.907,347.297)">
            <circle cx="1846.18" cy="885.787" r="37.15" style="fill:white;"/>
        </g>
        <g transform="matrix(0.159151,0,0,0.160436,-121.917,383.894)">
            <circle cx="1846.18" cy="885.787" r="37.15" style="fill:white;"/>
        </g>
        <g transform="matrix(0.126721,0,0,0.127744,-67.8475,426.672)">
            <circle cx="1846.18" cy="885.787" r="37.15" style="fill:white;"/>
        </g>
        <g transform="matrix(0.0755724,0,0,0.0761826,19.6916,484.708)">
            <circle cx="1846.18" cy="885.787" r="37.15" style="fill:white;"/>
        </g>
    </g>
</svg>
